<svg id="epVUnOzP8Ll1" xmlns="http://www.w3.org/2000/svg" xmlns:xlink="http://www.w3.org/1999/xlink" viewBox="0 0 300 300" shape-rendering="geometricPrecision" text-rendering="geometricPrecision"><defs><linearGradient id="epVUnOzP8Ll2-fill" x1="0.255522" y1="0" x2="0.836735" y2="0.766898" spreadMethod="pad" gradientUnits="objectBoundingBox" gradientTransform="translate(0 0)"><stop id="epVUnOzP8Ll2-fill-0" offset="0%" stop-color="#33b2f1"/><stop id="epVUnOzP8Ll2-fill-1" offset="100%" stop-color="#fff"/></linearGradient><linearGradient id="epVUnOzP8Ll3-fill" x1="0.123449" y1="0.128922" x2="0.255035" y2="0.927545" spreadMethod="pad" gradientUnits="objectBoundingBox" gradientTransform="translate(0 0)"><stop id="epVUnOzP8Ll3-fill-0" offset="0%" stop-color="#3fb7f2"/><stop id="epVUnOzP8Ll3-fill-1" offset="100%" stop-color="#fff"/></linearGradient><linearGradient id="epVUnOzP8Ll4-fill" x1="0.686216" y1="0.094835" x2="0.191627" y2="0.900549" spreadMethod="pad" gradientUnits="objectBoundingBox" gradientTransform="translate(0 0)"><stop id="epVUnOzP8Ll4-fill-0" offset="0%" stop-color="#8ad3f7"/><stop id="epVUnOzP8Ll4-fill-1" offset="100%" stop-color="#d6f0fd"/></linearGradient><linearGradient id="epVUnOzP8Ll4-stroke" x1="0.189728" y1="0.900549" x2="1.767317" y2="0.5" spreadMethod="pad" gradientUnits="objectBoundingBox" gradientTransform="translate(0 0)"><stop id="epVUnOzP8Ll4-stroke-0" offset="0%" stop-color="#a5ddf9"/><stop id="epVUnOzP8Ll4-stroke-1" offset="100%" stop-color="#fff"/></linearGradient><linearGradient id="epVUnOzP8Ll6-fill" x1="0" y1="0.821005" x2="0.5" y2="0" spreadMethod="pad" gradientUnits="objectBoundingBox" gradientTransform="translate(0 0)"><stop id="epVUnOzP8Ll6-fill-0" offset="0%" stop-color="#fff"/><stop id="epVUnOzP8Ll6-fill-1" offset="100%" stop-color="#8ad3f7"/></linearGradient><linearGradient id="epVUnOzP8Ll7-fill" x1="0.79124" y1="0.366351" x2="0.725775" y2="0.890339" spreadMethod="pad" gradientUnits="objectBoundingBox" gradientTransform="translate(0 0)"><stop id="epVUnOzP8Ll7-fill-0" offset="0%" stop-color="#b1e2fa"/><stop id="epVUnOzP8Ll7-fill-1" offset="100%" stop-color="#fff"/></linearGradient><linearGradient id="epVUnOzP8Ll9-stroke" x1="0" y1="0.5" x2="1" y2="0.5" spreadMethod="reflect" gradientUnits="objectBoundingBox" gradientTransform="translate(0 0)"><stop id="epVUnOzP8Ll9-stroke-0" offset="0%" stop-color="#fff"/><stop id="epVUnOzP8Ll9-stroke-1" offset="100%" stop-color="#97d8f8"/></linearGradient><linearGradient id="epVUnOzP8Ll10-stroke" x1="0" y1="0.5" x2="1" y2="0.5" spreadMethod="reflect" gradientUnits="objectBoundingBox" gradientTransform="translate(0 0)"><stop id="epVUnOzP8Ll10-stroke-0" offset="0%" stop-color="#fff"/><stop id="epVUnOzP8Ll10-stroke-1" offset="100%" stop-color="#97d8f8"/></linearGradient><linearGradient id="epVUnOzP8Ll11-stroke" x1="1.065546" y1="1" x2="0" y2="0.555217" spreadMethod="reflect" gradientUnits="objectBoundingBox" gradientTransform="translate(0 0)"><stop id="epVUnOzP8Ll11-stroke-0" offset="0%" stop-color="rgba(255,255,255,0.5)"/><stop id="epVUnOzP8Ll11-stroke-1" offset="100%" stop-color="#3fb7f2"/></linearGradient></defs><path d="M165.878932,0L144.408827,63.963024h-40.25645L34.374533,0h131.504399Z" transform="translate(.000003 0)" fill="url(#epVUnOzP8Ll2-fill)" stroke-width="0.6"/><path d="M38.710117,0L104.15238,63.963024h-104.15238L0,0h38.710117Z" fill="url(#epVUnOzP8Ll3-fill)" stroke-width="0.6"/><path d="M144.40883,63.963024h13.285743L200.989965,0h-35.111031L144.40883,63.963024Z" transform="translate(.000003 0)" fill="url(#epVUnOzP8Ll4-fill)" stroke="url(#epVUnOzP8Ll4-stroke)" stroke-width="0.6" stroke-opacity="0.2"/><path d="" fill="none" stroke="#3f5787" stroke-width="0.6"/><path d="M294.433255,0c0,0-42.131363,22.211979-55.443022,31.981512s-33.639582,31.981512-33.639582,31.981512h-47.656075c0,0,10.117055-15.769689,19.573269-31.981511C184.935474,18.836056,200.989965,0,200.989965,0s93.44329,0,93.44329,0Z" transform="translate(.000003 0)" fill="url(#epVUnOzP8Ll6-fill)" stroke-width="0.6"/><path d="M205.350654,63.963024c0,0,15.631352-17.177863,20.713259-21.940668s12.926317-10.040846,12.926317-10.040846c4.379765-4.099138,11.247757-8.543133,11.247757-8.543133l44.195268-23.438379h5.566742l-.000001,63.963024-94.649342.000002Z" transform="translate(.000006 0.000002)" fill="url(#epVUnOzP8Ll7-fill)" stroke-width="0.6"/><path d="" fill="none" stroke="#3f5787" stroke-width="0.6"/><path d="M165.878937,0c2.145772,21.764773-12.234235,44.633896-21.470104,63.963024" fill="none" stroke="url(#epVUnOzP8Ll9-stroke)" stroke-width="6" stroke-opacity="0.5"/><path d="M165.878937,0c-13.835933,30.688059-16.996563,47.405126-21.470104,63.963024" fill="none" stroke="url(#epVUnOzP8Ll10-stroke)" stroke-width="6" stroke-opacity="0.5"/><path d="M100.126736,57.601837L38.710116,-0.000001v0" transform="translate(.000001 0.000001)" fill="none" stroke="url(#epVUnOzP8Ll11-stroke)" stroke-width="6" stroke-opacity="0.3"/></svg>
