<svg xmlns="http://www.w3.org/2000/svg" xmlns:xlink="http://www.w3.org/1999/xlink" version="1.1" x="0px" y="0px" width="300px" height="70px" viewBox="0 0 300 70" enable-background="new 0 0 300 70" xml:space="preserve"><script xmlns=""/>
<g id="Layer_1">
	<g>
		<path d="M109.899,27.446l-7.715,27.319h-3.753l-5.62-19.984c-0.241-0.863-0.381-1.784-0.419-2.762h-0.076    c-0.089,0.939-0.26,1.847-0.515,2.724l-5.658,20.022h-3.715l-7.982-27.319h3.505l5.811,20.956c0.241,0.864,0.4,1.777,0.476,2.743    h0.076c0.051-0.673,0.241-1.588,0.571-2.743l6.058-20.956h3.086l5.772,21.108c0.203,0.774,0.355,1.619,0.457,2.534h0.076    c0.051-0.648,0.222-1.518,0.515-2.61l5.582-21.032H109.899z"/>
		<path d="M115.674,28.266c0,0.572-0.2,1.055-0.6,1.448c-0.4,0.393-0.886,0.591-1.457,0.591c-0.559,0-1.039-0.19-1.438-0.572    c-0.4-0.381-0.6-0.87-0.6-1.467c0-0.571,0.2-1.051,0.6-1.438s0.879-0.581,1.438-0.581c0.571,0,1.057,0.193,1.457,0.581    C115.475,27.215,115.674,27.694,115.674,28.266z M115.141,54.766h-3.124V35.258h3.124V54.766z"/>
		<path d="M136.021,54.766h-3.125V43.64c0-4.128-1.511-6.192-4.534-6.192c-1.562,0-2.854,0.586-3.876,1.754    c-1.022,1.169-1.534,2.647-1.534,4.438v11.126h-3.125V35.258h3.125v3.238h0.076c1.46-2.477,3.594-3.715,6.401-3.715    c2.146,0,3.781,0.698,4.905,2.096c1.124,1.396,1.687,3.378,1.687,5.943V54.766z"/>
		<path d="M156.884,54.766h-3.124V51.45h-0.077c-1.448,2.527-3.683,3.791-6.706,3.791c-2.4,0-4.331-0.851-5.792-2.553    c-1.524-1.752-2.286-4.153-2.286-7.201c0-3.251,0.813-5.849,2.438-7.792c1.626-1.942,3.792-2.914,6.497-2.914    c2.667,0,4.617,1.054,5.848,3.163h0.077v-12.06h3.124V54.766z M153.76,45.945v-2.877c0-1.563-0.508-2.877-1.524-3.944    c-1.054-1.117-2.388-1.677-4-1.677c-1.905,0-3.404,0.696-4.496,2.087c-1.092,1.391-1.639,3.318-1.639,5.781    c0,2.351,0.565,4.173,1.696,5.468c1.042,1.194,2.4,1.792,4.077,1.792c1.778,0,3.219-0.648,4.324-1.943    C153.239,49.386,153.76,47.824,153.76,45.945z"/>
		<path d="M179.521,44.936c0,3.111-0.876,5.607-2.629,7.486c-1.752,1.88-4.115,2.819-7.086,2.819c-2.934,0-5.258-0.939-6.973-2.819    c-1.676-1.816-2.515-4.21-2.515-7.182c0-3.392,0.953-6.014,2.858-7.868c1.766-1.727,4.127-2.591,7.087-2.591    c2.908,0,5.179,0.901,6.811,2.705S179.521,41.772,179.521,44.936z M176.32,45.049c0-2.501-0.564-4.406-1.695-5.715    c-1.093-1.257-2.623-1.887-4.591-1.887c-1.943,0-3.499,0.636-4.667,1.906c-1.232,1.358-1.848,3.283-1.848,5.772    c0,2.337,0.591,4.162,1.771,5.477c1.182,1.315,2.763,1.973,4.744,1.973c2.057,0,3.626-0.667,4.706-2.001    C175.794,49.278,176.32,47.437,176.32,45.049z"/>
		<path d="M207.297,35.258l-5.849,19.508h-3.238l-4.02-13.965c-0.14-0.508-0.241-1.104-0.305-1.79h-0.076    c-0.038,0.444-0.171,1.028-0.4,1.752l-4.363,14.003h-3.124l-5.887-19.508h3.277l4.02,14.669c0.126,0.508,0.215,1.092,0.267,1.752    h0.152c0.038-0.546,0.159-1.144,0.362-1.79l4.477-14.631h2.858l4.058,14.707c0.127,0.47,0.216,1.054,0.267,1.752h0.152    c0.025-0.495,0.127-1.079,0.305-1.752l3.981-14.707H207.297z"/>
		<path d="M220.064,49.545c0,1.601-0.597,2.928-1.791,3.982c-1.308,1.143-3.093,1.714-5.353,1.714c-1.854,0-3.467-0.394-4.839-1.181    v-3.354c1.524,1.246,3.213,1.868,5.067,1.868c2.477,0,3.715-0.909,3.715-2.725c0-0.762-0.273-1.391-0.819-1.887    c-0.546-0.495-1.613-1.092-3.201-1.79c-1.638-0.711-2.8-1.448-3.486-2.21c-0.825-0.902-1.238-2.077-1.238-3.524    c0-1.626,0.641-2.976,1.924-4.048c1.283-1.074,2.934-1.61,4.953-1.61c1.549,0,2.94,0.305,4.172,0.914v3.144    c-1.283-0.927-2.756-1.392-4.419-1.392c-1.042,0-1.874,0.255-2.496,0.764c-0.622,0.507-0.933,1.161-0.933,1.962    c0,0.863,0.26,1.536,0.781,2.02c0.47,0.444,1.448,0.983,2.934,1.618c1.664,0.699,2.864,1.416,3.601,2.153    C219.588,46.903,220.064,48.098,220.064,49.545z"/>
	</g>
	<g>
		<path d="M245.583,54.766h-14.174V27.446h3.2V51.87h10.974V54.766z"/>
		<path d="M251.861,28.266c0,0.572-0.2,1.055-0.6,1.448c-0.4,0.393-0.886,0.591-1.458,0.591c-0.559,0-1.038-0.19-1.438-0.572    c-0.4-0.381-0.6-0.87-0.6-1.467c0-0.571,0.2-1.051,0.6-1.438c0.4-0.388,0.879-0.581,1.438-0.581c0.572,0,1.058,0.193,1.458,0.581    S251.861,27.694,251.861,28.266z M251.328,54.766h-3.125V35.258h3.125V54.766z"/>
		<path d="M271.819,35.258l-7.773,19.508h-3.086l-7.373-19.508h3.448l4.953,14.154c0.343,1.016,0.559,1.931,0.647,2.743h0.096    c0.114-0.966,0.317-1.849,0.609-2.648l5.201-14.249H271.819z"/>
		<path d="M289.527,45.792h-13.773c0.051,2.186,0.635,3.862,1.753,5.03s2.654,1.753,4.61,1.753c2.197,0,4.21-0.713,6.039-2.135    v2.915c-1.702,1.258-3.962,1.886-6.782,1.886c-2.667,0-4.782-0.838-6.344-2.515c-1.677-1.777-2.515-4.324-2.515-7.64    c0-3.137,0.908-5.67,2.725-7.601c1.702-1.804,3.785-2.705,6.249-2.705c2.642,0,4.661,0.883,6.058,2.647    c1.321,1.651,1.981,3.894,1.981,6.726V45.792z M286.327,43.145c-0.025-1.778-0.444-3.162-1.257-4.153    c-0.851-1.028-2.058-1.544-3.62-1.544c-1.473,0-2.724,0.524-3.752,1.572c-1.029,1.049-1.664,2.423-1.905,4.125H286.327z"/>
	</g>
	<g>
		<path d="M291.223,35.601h-0.765v2.374h-0.312v-2.374h-0.766v-0.281h1.842V35.601z"/>
		<path d="M294.35,37.975h-0.312V36.19c0-0.141,0.01-0.312,0.027-0.514h-0.009c-0.028,0.119-0.056,0.204-0.078,0.258l-0.906,2.04    h-0.152l-0.907-2.025c-0.026-0.057-0.053-0.148-0.08-0.272h-0.007c0.01,0.105,0.016,0.279,0.016,0.52v1.778h-0.301v-2.655h0.411    l0.814,1.853c0.063,0.14,0.103,0.245,0.12,0.318H293c0.054-0.146,0.096-0.254,0.127-0.326l0.832-1.845h0.391V37.975z"/>
	</g>
	<g>
		<path d="M62.957,58.206c0,0.556-0.191,1.022-0.575,1.4c-0.384,0.379-0.856,0.568-1.419,0.568c-0.568,0-1.04-0.185-1.415-0.554    c-0.375-0.368-0.562-0.835-0.562-1.399c0-0.554,0.19-1.021,0.571-1.4c0.381-0.381,0.855-0.571,1.421-0.571    c0.556,0,1.021,0.183,1.399,0.545C62.764,57.167,62.957,57.638,62.957,58.206z M62.719,58.217c0-0.5-0.17-0.915-0.508-1.249    c-0.339-0.334-0.751-0.5-1.238-0.5c-0.504,0-0.923,0.167-1.256,0.503c-0.332,0.337-0.499,0.752-0.499,1.246    c0,0.503,0.172,0.922,0.516,1.26c0.337,0.331,0.75,0.497,1.238,0.497c0.483,0,0.895-0.169,1.235-0.505    C62.548,59.133,62.719,58.716,62.719,58.217z M61.933,59.451h-0.429l-0.275-0.605c-0.14-0.303-0.29-0.454-0.45-0.454h-0.233v1.06    h-0.354v-2.523h0.711c0.314,0,0.552,0.071,0.715,0.212c0.138,0.122,0.206,0.28,0.206,0.477c0,0.173-0.056,0.32-0.167,0.442    c-0.113,0.121-0.271,0.202-0.473,0.245v0.01c0.142,0.032,0.281,0.188,0.418,0.466L61.933,59.451z M61.446,57.658    c0-0.145-0.041-0.25-0.122-0.315c-0.092-0.073-0.247-0.11-0.466-0.11h-0.312v0.859h0.378    C61.272,58.092,61.446,57.947,61.446,57.658z"/>
	</g>
	<g>
		<g>
			
				<radialGradient id="SVGID_1_" cx="54.7925" cy="55.4658" r="29.9702" gradientTransform="matrix(0.9732 0 0 0.9795 -15.4774 -15.2514)" gradientUnits="userSpaceOnUse">
				<stop offset="0.25" style="stop-color:#FFFFFF"/>
				<stop offset="1" style="stop-color:#000000"/>
			</radialGradient>
			<path opacity="0.2" fill="url(#SVGID_1_)" d="M23.458,32.873c-1.06,0.025-2.179,0.135-3.326,0.325     c-1.202,0.2-2.477,0.494-3.788,0.877c-1.367,0.396-2.821,0.903-4.317,1.503l-0.009,0.002c-0.052,0.022-0.088,0.065-0.104,0.119     L5.955,55.89c-0.032,0.107,0.026,0.215,0.095,0.273l0.399,0.297c0,0,0.006,0.005,0.012,0.009     c0.097,0.063,0.193,0.062,0.232,0.057c0.002,0,0.011-0.004,0.011-0.004c2.232-0.839,4.222-1.441,6.083-1.843     c1.814-0.39,3.449-0.574,4.996-0.566c1.294,0.01,2.51,0.143,3.72,0.407c1.092,0.237,2.154,0.579,3.245,1.043     c1.53,0.666,2.934,1.504,3.984,2.158l0.01,0.008c0,0,0,0.001-0.001,0.001c0.033,0.018,0.13,0.062,0.224,0.021     c0,0,0.262-0.15,0.342-0.196l0,0l0.026-0.02c0.053-0.036,0.126-0.084,0.147-0.176l0.005-0.021c0,0,0.001,0.002,0.002,0.003     c0.012-0.036,5.931-19.658,5.931-19.658l0.204-0.674c0.003-0.018,0.006-0.036,0.006-0.055c0-0.079-0.034-0.15-0.091-0.19     c-0.002,0-0.007,0-0.007,0l0-0.002c-2.524-1.656-5.378-3.256-9.139-3.742C25.448,32.897,24.462,32.848,23.458,32.873z"/>
			
				<radialGradient id="SVGID_2_" cx="54.7939" cy="55.4678" r="29.9637" gradientTransform="matrix(0.9732 0 0 0.9795 -15.4774 -15.2514)" gradientUnits="userSpaceOnUse">
				<stop offset="0.25" style="stop-color:#FFFFFF"/>
				<stop offset="1" style="stop-color:#000000"/>
			</radialGradient>
			<path opacity="0.2" fill="url(#SVGID_2_)" d="M38.274,38.854L38.274,38.854c-0.069,0-0.14,0.029-0.249,0.092     c0,0.002-0.001,0.003-0.001,0.003l-0.001,0.001l-0.001,0.003c-0.027,0.019-0.097,0.064-0.176,0.125     c-0.158,0.119-0.257,0.219-0.285,0.286l0,0.001c0,0,0,0.001-0.001,0.001c-0.001,0.002-0.006,0.016-0.006,0.016l0.001-0.003     l-0.001,0.006v0.002l-5.965,20.005c-0.104,0.299,0.171,0.463,0.203,0.48c1.531,0.993,2.989,1.776,4.461,2.389     c0.863,0.363,1.744,0.67,2.623,0.915c0.952,0.268,1.931,0.474,2.912,0.609c1.052,0.148,2.137,0.22,3.226,0.217     c1.157-0.005,2.355-0.096,3.56-0.269c1.274-0.185,2.592-0.468,3.919-0.841c1.396-0.392,2.841-0.897,4.298-1.5     c0.001,0,0.009-0.005,0.009-0.005c0.041-0.026,0.138-0.086,0.187-0.183c0-0.001,5.826-19.679,5.827-19.686l-0.001-0.005v-0.003     c0.007-0.028,0.009-0.057,0.009-0.085c0-0.161-0.104-0.257-0.105-0.259c0,0.001-0.488-0.376-0.488-0.376l0,0l-0.001-0.003     c-0.032-0.035-0.118-0.089-0.326-0.059c-1.495,0.49-2.938,0.896-4.296,1.214c-1.308,0.305-2.576,0.533-3.771,0.68     c-2.254,0.276-4.292,0.276-6.231,0c-1.708-0.244-3.322-0.703-4.936-1.401c-1.303-0.565-2.632-1.299-4.18-2.308l-0.005-0.003     l0.001,0.001C38.393,38.871,38.332,38.854,38.274,38.854z"/>
			
				<radialGradient id="SVGID_3_" cx="54.7915" cy="55.4658" r="29.9664" gradientTransform="matrix(0.9732 0 0 0.9795 -15.4774 -15.2514)" gradientUnits="userSpaceOnUse">
				<stop offset="0.25" style="stop-color:#FFFFFF"/>
				<stop offset="1" style="stop-color:#000000"/>
			</radialGradient>
			<path opacity="0.2" fill="url(#SVGID_3_)" d="M45.089,14.49c-0.001,0-0.102,0.072-0.102,0.072     c-0.205,0.147-0.327,0.262-0.361,0.34l-0.001,0.002c0,0,0,0.002-0.002,0.002c0,0.003-0.021,0.069-0.021,0.069     c0,0.002-5.984,20.051-5.984,20.051c-0.016,0.047-0.023,0.092-0.023,0.131c0,0.22,0.204,0.331,0.207,0.332l0,0h0.002     c0.474,0.309,0.963,0.605,1.456,0.879c2.296,1.387,4.566,2.307,6.939,2.817c1.374,0.293,2.803,0.45,4.247,0.464     c1.562,0.016,3.196-0.137,4.854-0.451c2.46-0.378,4.961-1.119,7.429-2.202c0-0.002,0.007-0.004,0.007-0.004     c0.047-0.021,0.147-0.086,0.2-0.185c0-0.004,6.086-20.235,6.086-20.235c0.012-0.036,0.018-0.069,0.018-0.102     c0-0.174-0.152-0.32-0.299-0.446c-0.082-0.076-0.195-0.173-0.273-0.205c-0.166-0.076-0.334-0.051-0.385-0.022     c-0.001,0.002-0.004,0.006-0.004,0.006h-0.002c-1.49,0.595-2.937,1.095-4.302,1.485c-1.308,0.374-2.581,0.659-3.784,0.851     c-1.146,0.18-2.266,0.278-3.331,0.293c-1.004,0.015-1.994-0.045-2.941-0.178c-1.702-0.239-3.33-0.713-4.975-1.451     c-1.635-0.729-3.099-1.641-4.194-2.355C45.362,14.366,45.279,14.372,45.089,14.49z"/>
			
				<radialGradient id="SVGID_4_" cx="54.791" cy="55.4688" r="29.9715" gradientTransform="matrix(0.9732 0 0 0.9795 -15.4774 -15.2514)" gradientUnits="userSpaceOnUse">
				<stop offset="0.25" style="stop-color:#FFFFFF"/>
				<stop offset="1" style="stop-color:#000000"/>
			</radialGradient>
			<path opacity="0.2" fill-rule="evenodd" clip-rule="evenodd" fill="url(#SVGID_4_)" d="M25.718,8.881     c-2.065,0.434-4.321,1.139-6.704,2.092v0.001c-0.021,0.007-0.088,0.034-0.111,0.12l-0.311,1.032l-5.738,19.222     c-0.006,0.021-0.009,0.043-0.009,0.067c0,0.094,0.042,0.209,0.089,0.241c0.009,0.009,0.02,0.013,0.029,0.018l0.001,0.001     l0.039,0.03l0.354,0.268l0.01,0.006c0.012,0.009,0.024,0.018,0.033,0.023c0.073,0.028,0.091,0.028,0.11,0.026h0.006l0,0     c0-0.001,0.002-0.001,0.002-0.001l0,0c0-0.001,0-0.002,0-0.002l0.011-0.003c0.052-0.004,0.175-0.057,0.176-0.059     c5.227-2.008,9.406-2.735,13.155-2.292c1.599,0.189,3.146,0.599,4.73,1.25c1.26,0.52,2.563,1.197,4.093,2.138l0.021,0.009h0.005     c0,0,0.018,0.009,0.018,0.009l0.002,0.001l0.001,0.002l0.006,0.003l0.006,0.004h-0.001c0.001,0,0.121,0.059,0.221,0.034     c0-0.002,0.376-0.168,0.376-0.168l0,0l0,0l0.019-0.01c0.049-0.036,0.127-0.089,0.149-0.185l0,0c0,0,0.001,0,0.001-0.001     s0-0.001,0-0.001l3.773-12.62l2.029-6.782l0.136-0.448c0-0.001,0-0.01,0-0.01c0-0.001,0.099-0.329,0.099-0.329     c0.002-0.012,0.004-0.022,0.005-0.034c0-0.009,0.001-0.018,0.001-0.027c0-0.076-0.032-0.143-0.089-0.18     c-1.199-0.786-2.15-1.353-3.085-1.838l-0.063-0.031c-2.699-1.393-5.295-2.068-8.171-2.128C29.454,8.294,27.63,8.479,25.718,8.881     z"/>
		</g>
		<g>
			<path fill="#FFFFFF" d="M21.981,30.584c-1.056,0.028-2.169,0.14-3.312,0.336c-1.195,0.206-2.462,0.506-3.768,0.898     c-1.36,0.409-2.805,0.93-4.296,1.547l-0.008,0.002c-0.051,0.025-0.087,0.066-0.105,0.122L4.563,54.24     c-0.033,0.107,0.028,0.22,0.096,0.279l0.397,0.301c0,0,0.005,0.009,0.011,0.013c0.096,0.063,0.193,0.063,0.231,0.06     c0.001,0,0.012-0.006,0.012-0.006c2.22-0.86,4.199-1.479,6.052-1.894c1.806-0.399,3.432-0.589,4.971-0.583     c1.288,0.013,2.499,0.146,3.705,0.419c1.084,0.245,2.142,0.598,3.227,1.075c1.521,0.682,2.918,1.543,3.965,2.215l0.01,0.009     c0,0-0.001,0-0.001,0c0.033,0.016,0.13,0.063,0.221,0.021c0,0,0.262-0.152,0.341-0.201l0,0l0.027-0.021     c0.053-0.035,0.127-0.087,0.147-0.182l0.004-0.02l0.004,0.004c0.01-0.039,5.901-20.205,5.901-20.205l0.204-0.691     c0.001-0.019,0.004-0.037,0.004-0.055c0-0.08-0.033-0.154-0.092-0.196l-0.006-0.001l0,0c-2.512-1.702-5.353-3.347-9.094-3.846     C23.961,30.609,22.979,30.561,21.981,30.584z"/>
			<path fill="#FFFFFF" d="M36.875,36.59L36.875,36.59c-0.067,0.001-0.139,0.029-0.247,0.099v0.002l-0.001,0.001l-0.001,0.001     c-0.027,0.019-0.097,0.063-0.176,0.129c-0.157,0.123-0.256,0.225-0.283,0.295h-0.001c0,0,0,0,0,0.001     c0,0.003-0.005,0.014-0.005,0.014l0,0v0.005l0,0l-5.937,20.557c-0.102,0.311,0.171,0.478,0.202,0.498     c1.524,1.021,2.977,1.822,4.441,2.454c0.856,0.37,1.734,0.688,2.605,0.939c0.949,0.277,1.924,0.486,2.9,0.629     c1.045,0.148,2.126,0.224,3.209,0.22c1.153-0.004,2.345-0.097,3.543-0.277c1.266-0.188,2.578-0.478,3.899-0.86     c1.387-0.404,2.826-0.925,4.277-1.543l0.009-0.007c0.042-0.025,0.137-0.086,0.186-0.185c0-0.002,5.797-20.226,5.8-20.231     l-0.004-0.005l0,0c0.009-0.032,0.01-0.063,0.01-0.087c0-0.169-0.104-0.269-0.106-0.271c0.003,0-0.483-0.389-0.483-0.389l0,0     H60.71c-0.032-0.036-0.117-0.09-0.324-0.059c-1.488,0.501-2.925,0.922-4.275,1.248c-1.302,0.312-2.563,0.545-3.751,0.698     c-2.243,0.281-4.271,0.281-6.201-0.001c-1.698-0.251-3.307-0.722-4.91-1.444c-1.299-0.577-2.62-1.331-4.162-2.368l-0.001-0.005     v0.003C36.994,36.608,36.934,36.59,36.875,36.59z"/>
			<path fill="#FFFFFF" d="M43.689,12.234l-0.101,0.073c-0.206,0.153-0.326,0.27-0.361,0.351v0.001l-0.001,0.003     c-0.003,0.003-0.022,0.069-0.022,0.069c0,0.004-5.954,20.605-5.954,20.605c-0.014,0.049-0.024,0.097-0.024,0.139     c0,0.222,0.204,0.336,0.206,0.338l0,0h0.002c0.47,0.318,0.959,0.62,1.45,0.902c2.284,1.427,4.542,2.371,6.903,2.896     c1.366,0.303,2.787,0.463,4.225,0.478c1.556,0.016,3.182-0.14,4.833-0.462c2.447-0.391,4.937-1.153,7.392-2.266l0.007-0.007     c0.046-0.02,0.147-0.087,0.2-0.188l6.054-20.792c0.012-0.037,0.018-0.071,0.018-0.107c0-0.178-0.149-0.326-0.296-0.455     c-0.082-0.079-0.196-0.181-0.274-0.214c-0.164-0.076-0.332-0.053-0.382-0.021l-0.005,0.006l0,0     c-1.484,0.612-2.925,1.126-4.282,1.528c-1.299,0.383-2.569,0.678-3.766,0.871c-1.14,0.185-2.255,0.287-3.313,0.303     c-1,0.016-1.985-0.047-2.927-0.184c-1.695-0.245-3.315-0.732-4.952-1.49c-1.625-0.751-3.083-1.687-4.17-2.419     C43.961,12.106,43.881,12.113,43.689,12.234z"/>
			<path fill-rule="evenodd" clip-rule="evenodd" fill="#FFFFFF" d="M24.354,6.534c-2.052,0.445-4.297,1.168-6.668,2.148l0,0     c-0.023,0.009-0.089,0.036-0.113,0.124l-0.308,1.063l-5.71,19.753c-0.005,0.021-0.008,0.044-0.008,0.069     c0,0.096,0.042,0.214,0.089,0.248c0.007,0.006,0.019,0.013,0.027,0.017l0,0l0.039,0.032l0.354,0.276l0.009,0.005     c0.011,0.009,0.025,0.019,0.033,0.022c0.07,0.032,0.09,0.032,0.108,0.029h0.006l0,0l0.003-0.003h0l0-0.001l0.01-0.002     c0.051-0.006,0.175-0.06,0.176-0.06c5.2-2.063,9.36-2.813,13.089-2.356c1.591,0.196,3.129,0.614,4.707,1.283     c1.253,0.536,2.548,1.234,4.074,2.197c0,0,0.018,0.011,0.018,0.011h0.005l0.018,0.01h0.003l0.002,0.002l0.005,0.004l0.006,0.003     v-0.001c0,0.001,0.119,0.063,0.218,0.035l0.375-0.17l0,0v-0.002l0.015-0.01c0.052-0.036,0.127-0.092,0.15-0.189l0,0     c0,0,0,0,0-0.002l0,0l3.755-12.969l2.019-6.97l0.135-0.462l0-0.01c0-0.002,0.099-0.338,0.099-0.338     c0.002-0.012,0.002-0.023,0.004-0.035c0.003-0.01,0.003-0.018,0.003-0.028c0-0.077-0.033-0.146-0.09-0.185     c-1.192-0.808-2.139-1.392-3.07-1.889l-0.062-0.034c-2.685-1.43-5.268-2.123-8.13-2.186C28.072,5.931,26.257,6.121,24.354,6.534z     "/>
		</g>
		<g>
			<g>
				<g>
					<g>
						<g>
							<radialGradient id="SVGID_5_" cx="35.5693" cy="34.3027" r="32.0957" gradientUnits="userSpaceOnUse">
								<stop offset="0.0011" style="stop-color:#D1E7EE"/>
								<stop offset="0.0979" style="stop-color:#CDE4EC"/>
								<stop offset="0.203" style="stop-color:#C0DCE8"/>
								<stop offset="0.2985" style="stop-color:#ADD1E1"/>
								<stop offset="0.6504" style="stop-color:#3982B2"/>
								<stop offset="0.7203" style="stop-color:#3474AB"/>
								<stop offset="0.899" style="stop-color:#28569A"/>
								<stop offset="1" style="stop-color:#234B94"/>
							</radialGradient>
							<path fill="url(#SVGID_5_)" d="M10.626,33.477c12.167-5.012,18.055-2.337,23.329,1.242l-6.09,20.936         c-5.292-3.559-11.047-6.489-23.262-1.439l5.953-20.708L10.626,33.477z"/>
						</g>
					</g>
				</g>
				<radialGradient id="SVGID_6_" cx="35.4463" cy="34.3213" r="32.0935" gradientUnits="userSpaceOnUse">
					<stop offset="0.0036" style="stop-color:#D8EEED"/>
					<stop offset="0.1733" style="stop-color:#98D8D7"/>
					<stop offset="0.2233" style="stop-color:#8ED3D4"/>
					<stop offset="0.3077" style="stop-color:#74C6CA"/>
					<stop offset="0.4156" style="stop-color:#49B1BB"/>
					<stop offset="0.4477" style="stop-color:#3BAAB6"/>
					<stop offset="0.56" style="stop-color:#2D81A5"/>
					<stop offset="0.6836" style="stop-color:#205B95"/>
					<stop offset="0.783" style="stop-color:#18448B"/>
					<stop offset="0.8448" style="stop-color:#153B87"/>
					<stop offset="1" style="stop-color:#0A327D"/>
				</radialGradient>
				<path fill-rule="evenodd" clip-rule="evenodd" fill="url(#SVGID_6_)" d="M5.051,54.829c0.039,0.004,0.109-0.032,0.109-0.032      c0.088,0.059,0.156,0.1,0.156,0.1S5.18,54.929,5.051,54.829z"/>
				<path fill="#14256A" d="M27.653,55.89c0,0,0.079,0.074,0.174,0.052l-0.365,0.217c-0.117,0.051-0.24-0.03-0.24-0.03L27.653,55.89      z"/>
				<radialGradient id="SVGID_7_" cx="35.5615" cy="34.3535" r="32.1631" gradientUnits="userSpaceOnUse">
					<stop offset="0.0036" style="stop-color:#D8EEED"/>
					<stop offset="0.1733" style="stop-color:#98D8D7"/>
					<stop offset="0.2233" style="stop-color:#8ED3D4"/>
					<stop offset="0.3077" style="stop-color:#74C6CA"/>
					<stop offset="0.4156" style="stop-color:#49B1BB"/>
					<stop offset="0.4477" style="stop-color:#3BAAB6"/>
					<stop offset="0.56" style="stop-color:#2D81A5"/>
					<stop offset="0.6836" style="stop-color:#205B95"/>
					<stop offset="0.783" style="stop-color:#18448B"/>
					<stop offset="0.8448" style="stop-color:#153B87"/>
					<stop offset="1" style="stop-color:#14256A"/>
				</radialGradient>
				<path fill="url(#SVGID_7_)" d="M5.168,54.801c0,0-0.073,0.037-0.112,0.032l-0.402-0.31l-0.007-0.006      c0.059,0.014,0.123,0.006,0.147,0.004L5.168,54.801z"/>
				<path fill="#14256A" d="M27.859,55.598c0.04,0.026,0.083,0.061,0.123,0.146c-0.021,0.11-0.108,0.163-0.166,0.202      c-0.074,0.016-0.177-0.052-0.177-0.052C27.699,55.846,27.796,55.775,27.859,55.598z"/>
				<path fill-rule="evenodd" clip-rule="evenodd" fill="#162E65" d="M4.654,54.523c-0.078-0.065-0.13-0.181-0.098-0.285l0.07-0.03      c-0.027,0.156,0.083,0.265,0.165,0.315C4.791,54.523,4.733,54.55,4.654,54.523z"/>
				<radialGradient id="SVGID_8_" cx="35.5713" cy="34.2002" r="32.2475" gradientUnits="userSpaceOnUse">
					<stop offset="0.0036" style="stop-color:#D8EEED"/>
					<stop offset="0.1733" style="stop-color:#98D8D7"/>
					<stop offset="0.2233" style="stop-color:#8ED3D4"/>
					<stop offset="0.3077" style="stop-color:#74C6CA"/>
					<stop offset="0.4156" style="stop-color:#49B1BB"/>
					<stop offset="0.4477" style="stop-color:#3BAAB6"/>
					<stop offset="0.56" style="stop-color:#2D81A5"/>
					<stop offset="0.6836" style="stop-color:#205B95"/>
					<stop offset="0.783" style="stop-color:#18448B"/>
					<stop offset="0.8448" style="stop-color:#153B87"/>
					<stop offset="1" style="stop-color:#0A327D"/>
				</radialGradient>
				<path fill-rule="evenodd" clip-rule="evenodd" fill="url(#SVGID_8_)" d="M5.145,54.778c11.618-4.537,16.822-2.062,22.117,1.341      c-3.171-2.042-6.43-3.667-10.929-3.699c-3.012-0.018-6.571,0.746-11.026,2.477C5.307,54.896,5.218,54.86,5.145,54.778z"/>
				<g>
					<path fill="#074B90" d="M27.65,55.906c-5.294-3.563-10.778-6.28-22.85-1.376c-0.08-0.05-0.209-0.171-0.177-0.325       c12.253-5.213,17.948-2.169,23.241,1.393C27.81,55.789,27.709,55.857,27.65,55.906z"/>
					<path fill-rule="evenodd" clip-rule="evenodd" fill="#074B90" d="M27.656,55.906l-0.43,0.222       c-5.29-3.402-10.645-5.759-22.059-1.327l-0.379-0.277C16.864,49.62,22.359,52.343,27.656,55.906z"/>
				</g>
				<linearGradient id="SVGID_9_" gradientUnits="userSpaceOnUse" x1="33.792" y1="35.3105" x2="28.7723" y2="52.9676">
					<stop offset="0" style="stop-color:#98D8D7"/>
					<stop offset="1" style="stop-color:#14256A"/>
				</linearGradient>
				<path fill-rule="evenodd" clip-rule="evenodd" fill="url(#SVGID_9_)" d="M27.857,55.602l6.098-20.884      c0.067,0.043,0.103,0.079,0.138,0.117l-6.111,20.918C27.947,55.658,27.857,55.602,27.857,55.602z"/>
				<radialGradient id="SVGID_10_" cx="35.5786" cy="34.207" r="32.2981" gradientUnits="userSpaceOnUse">
					<stop offset="0.0036" style="stop-color:#D8EEED"/>
					<stop offset="0.1733" style="stop-color:#98D8D7"/>
					<stop offset="0.2233" style="stop-color:#8ED3D4"/>
					<stop offset="0.3077" style="stop-color:#74C6CA"/>
					<stop offset="0.4156" style="stop-color:#49B1BB"/>
					<stop offset="0.4477" style="stop-color:#3BAAB6"/>
					<stop offset="0.56" style="stop-color:#2D81A5"/>
					<stop offset="0.6836" style="stop-color:#205B95"/>
					<stop offset="0.783" style="stop-color:#18448B"/>
					<stop offset="0.8448" style="stop-color:#153B87"/>
					<stop offset="1" style="stop-color:#14256A"/>
				</radialGradient>
				<path fill-rule="evenodd" clip-rule="evenodd" fill="url(#SVGID_10_)" d="M33.993,34.574l0.01,0.001      c0.077,0.056,0.108,0.162,0.09,0.26l-0.005,0.012c-0.035-0.035-0.07-0.075-0.136-0.119L33.993,34.574z"/>
				<polygon opacity="0.66" fill-rule="evenodd" clip-rule="evenodd" fill="#053367" points="10.485,33.487 10.556,33.505       4.625,54.208 4.556,54.238     "/>
				<linearGradient id="SVGID_11_" gradientUnits="userSpaceOnUse" x1="4.5464" y1="44.1895" x2="11.21" y2="44.1895">
					<stop offset="0" style="stop-color:#DEF3F1"/>
					<stop offset="1" style="stop-color:#5085BD"/>
				</linearGradient>
				<path opacity="0.42" fill="url(#SVGID_11_)" d="M10.485,33.487l-0.281,0.994L4.556,54.238c-0.032,0.104,0.02,0.22,0.098,0.285      l0.402,0.31c0,0,0.001-0.002,0.001,0c0.051,0.034,0.102,0.051,0.144,0.06l6.009-20.827l-0.013-0.015l-0.641-0.546L10.485,33.487      z M4.637,54.202v-0.003c0.03-0.01,0.057-0.021,0.085-0.03C4.691,54.179,4.667,54.189,4.637,54.202z M4.79,54.523      c-0.04-0.028-0.086-0.065-0.12-0.115c0.035,0.05,0.082,0.087,0.12,0.113C4.791,54.521,4.791,54.521,4.79,54.523z"/>
				<linearGradient id="SVGID_12_" gradientUnits="userSpaceOnUse" x1="27.3135" y1="45.4199" x2="34.0981" y2="45.4199">
					<stop offset="0" style="stop-color:#DEF3F1"/>
					<stop offset="1" style="stop-color:#5085BD"/>
				</linearGradient>
				<path opacity="0.42" fill="url(#SVGID_12_)" d="M34.075,34.667l-0.123,0.066l-0.505,0.498c0.001,0,0.001,0,0.001,0.004      c-0.821,2.81-5.436,18.568-6.136,20.928c0.043,0.012,0.096,0.018,0.148-0.005l0.365-0.217c-0.001,0-0.003,0-0.005,0      c0.055-0.039,0.136-0.091,0.16-0.196c0,0.004,0,0.004,0,0.008l5.909-20.226l0.202-0.692c0.005-0.038,0.007-0.071,0-0.107      C34.089,34.704,34.083,34.688,34.075,34.667z"/>
				<linearGradient id="SVGID_13_" gradientUnits="userSpaceOnUse" x1="10.5557" y1="32.9023" x2="34.0034" y2="32.9023">
					<stop offset="0" style="stop-color:#074993"/>
					<stop offset="0.6685" style="stop-color:#8ACDE2"/>
					<stop offset="1" style="stop-color:#E6F6F9"/>
				</linearGradient>
				<path fill-rule="evenodd" clip-rule="evenodd" fill="url(#SVGID_13_)" d="M33.953,34.728l-0.505,0.504      c-1.755-1.166-6.591-4.166-12.052-3.721c-4.433,0.359-8.334,1.786-10.186,2.555l-0.654-0.561l0.047-0.146      c12.216-5.052,18.108-2.366,23.395,1.216l-0.004,0.001h0.009L33.953,34.728z"/>
				<linearGradient id="SVGID_14_" gradientUnits="userSpaceOnUse" x1="10.603" y1="33.3584" x2="10.603" y2="33.3584">
					<stop offset="0" style="stop-color:#7D9EC4"/>
					<stop offset="1" style="stop-color:#141D89"/>
				</linearGradient>
				<path fill-rule="evenodd" clip-rule="evenodd" fill="url(#SVGID_14_)" d="M10.603,33.358"/>
				<linearGradient id="SVGID_15_" gradientUnits="userSpaceOnUse" x1="11.1235" y1="33.3047" x2="33.541" y2="33.3047">
					<stop offset="0.0056" style="stop-color:#BAC7E1"/>
					<stop offset="0.2247" style="stop-color:#7090C3"/>
					<stop offset="0.5449" style="stop-color:#C8EAEF"/>
					<stop offset="1" style="stop-color:#FFFFFF"/>
				</linearGradient>
				<path opacity="0.33" fill-rule="evenodd" clip-rule="evenodd" fill="url(#SVGID_15_)" d="M11.124,33.99      c12.219-5.053,17.674-1.713,22.417,1.15l-0.093,0.091c-4.881-3.024-10.072-5.993-22.236-1.159L11.124,33.99z"/>
				<linearGradient id="SVGID_16_" gradientUnits="userSpaceOnUse" x1="10.5557" y1="32.6299" x2="34.0034" y2="32.6299">
					<stop offset="0.0056" style="stop-color:#7090C3"/>
					<stop offset="0.5449" style="stop-color:#C0E7EE"/>
					<stop offset="1" style="stop-color:#FFFFFF"/>
				</linearGradient>
				<path opacity="0.33" fill-rule="evenodd" clip-rule="evenodd" fill="url(#SVGID_16_)" d="M10.603,33.358      c12.217-5.052,17.869-2.474,23.4,1.217l-0.048,0.144c-5.808-3.759-11.236-6.178-23.399-1.214L10.603,33.358z"/>
				<radialGradient id="SVGID_17_" cx="10.5386" cy="33.4238" r="0.0795" gradientUnits="userSpaceOnUse">
					<stop offset="0" style="stop-color:#7D9EC4"/>
					<stop offset="1" style="stop-color:#0850A1"/>
				</radialGradient>
				<path fill-rule="evenodd" clip-rule="evenodd" fill="url(#SVGID_17_)" d="M10.556,33.505l-0.07-0.018      c0.027-0.086,0.09-0.119,0.109-0.124l0.008-0.005C10.603,33.358,10.591,33.401,10.556,33.505z"/>
				<radialGradient id="SVGID_18_" cx="-4.9023" cy="53.3916" r="39.5873" gradientUnits="userSpaceOnUse">
					<stop offset="0.0036" style="stop-color:#D8EEED"/>
					<stop offset="0.1733" style="stop-color:#98D8D7"/>
					<stop offset="0.2233" style="stop-color:#8ED3D4"/>
					<stop offset="0.3077" style="stop-color:#74C6CA"/>
					<stop offset="0.4156" style="stop-color:#49B1BB"/>
					<stop offset="0.4477" style="stop-color:#3BAAB6"/>
					<stop offset="0.4987" style="stop-color:#359FB6"/>
					<stop offset="0.6306" style="stop-color:#2988B5"/>
					<stop offset="0.7129" style="stop-color:#247FB5"/>
					<stop offset="1" style="stop-color:#4061AB"/>
				</radialGradient>
				<path opacity="0.5" fill="url(#SVGID_18_)" d="M27.664,55.901c-5.293-3.559-10.778-6.278-22.848-1.378      c-0.082-0.046-0.21-0.168-0.18-0.321c12.255-5.217,17.949-2.169,23.243,1.39C27.825,55.787,27.725,55.854,27.664,55.901z"/>
			</g>
			<g>
				<g>
					<radialGradient id="SVGID_19_" cx="35.542" cy="35.0098" r="29.8774" gradientUnits="userSpaceOnUse">
						<stop offset="0" style="stop-color:#FCF5B0"/>
						<stop offset="0.1657" style="stop-color:#F8EDA0"/>
						<stop offset="0.2849" style="stop-color:#F4E591"/>
						<stop offset="0.65" style="stop-color:#FCD217"/>
						<stop offset="0.8042" style="stop-color:#F7A50B"/>
						<stop offset="0.9295" style="stop-color:#F38603"/>
						<stop offset="1" style="stop-color:#F27B00"/>
					</radialGradient>
					<path fill="url(#SVGID_19_)" d="M37.145,36.745c5.289,3.557,10.698,6.166,23.128,1.914l-5.801,20.184       c-12.202,5.048-18.06,2.191-23.342-1.391L37.145,36.745z"/>
				</g>
				<linearGradient id="SVGID_20_" gradientUnits="userSpaceOnUse" x1="55.3872" y1="59.3076" x2="55.2634" y2="59.7698">
					<stop offset="0" style="stop-color:#DE980C"/>
					<stop offset="1" style="stop-color:#A85D0F"/>
				</linearGradient>
				<path fill-rule="evenodd" clip-rule="evenodd" fill="url(#SVGID_20_)" d="M55.503,59.563c-0.056,0.109-0.165,0.174-0.199,0.195      c-0.01,0-0.017,0.002-0.017,0.002s-0.101,0.011-0.191-0.059c0.239-0.131,0.307-0.391,0.307-0.391S55.543,59.429,55.503,59.563z"/>
				<linearGradient id="SVGID_21_" gradientUnits="userSpaceOnUse" x1="55.3945" y1="49.373" x2="61.3018" y2="49.373">
					<stop offset="0" style="stop-color:#DEB150"/>
					<stop offset="1" style="stop-color:#FFF8B2"/>
				</linearGradient>
				<path fill-rule="evenodd" clip-rule="evenodd" fill="url(#SVGID_21_)" d="M55.503,59.563c0.021-0.117-0.108-0.222-0.108-0.222      l5.786-20.159c0,0,0.092,0.079,0.122,0.146L55.503,59.563z"/>
				<linearGradient id="SVGID_22_" gradientUnits="userSpaceOnUse" x1="61.2427" y1="38.9551" x2="61.2427" y2="39.3369">
					<stop offset="0.0056" style="stop-color:#C67C0B"/>
					<stop offset="1" style="stop-color:#DE980C"/>
				</linearGradient>
				<path fill-rule="evenodd" clip-rule="evenodd" fill="url(#SVGID_22_)" d="M61.297,39.337c0,0-0.018-0.061-0.121-0.146      c0.046-0.193,0.012-0.236,0.012-0.236l0.015,0.008C61.203,38.963,61.352,39.104,61.297,39.337z"/>
				<linearGradient id="SVGID_23_" gradientUnits="userSpaceOnUse" x1="60.395" y1="38.5029" x2="60.6344" y2="38.9014">
					<stop offset="0.0056" style="stop-color:#FED40D"/>
					<stop offset="1" style="stop-color:#A85D0F"/>
				</linearGradient>
				<path fill-rule="evenodd" clip-rule="evenodd" fill="url(#SVGID_23_)" d="M60.721,38.849c0,0-0.158-0.191-0.485-0.135      c0.016-0.073,0.044-0.161,0.149-0.203c0.195-0.028,0.289,0.02,0.33,0.063c0.024,0.021,0.032,0.043,0.032,0.043      C60.776,38.729,60.721,38.849,60.721,38.849z"/>
				<linearGradient id="SVGID_24_" gradientUnits="userSpaceOnUse" x1="61.0205" y1="38.8096" x2="60.8732" y2="38.9851">
					<stop offset="0.0056" style="stop-color:#FED40D"/>
					<stop offset="1" style="stop-color:#A85D0F"/>
				</linearGradient>
				<path fill-rule="evenodd" clip-rule="evenodd" fill="url(#SVGID_24_)" d="M60.716,38.574l0.487,0.389      c0.025,0.127-0.027,0.259-0.027,0.259l-0.479-0.384C60.698,38.838,60.745,38.69,60.716,38.574z"/>
				<polygon opacity="0.66" fill-rule="evenodd" clip-rule="evenodd" fill="#B37E00" points="54.876,58.974 60.694,38.805       61.183,39.195 55.408,59.359 55.382,59.41     "/>
				<linearGradient id="SVGID_25_" gradientUnits="userSpaceOnUse" x1="37.0864" y1="38.7803" x2="60.3857" y2="38.7803">
					<stop offset="0" style="stop-color:#FFF8FB"/>
					<stop offset="1" style="stop-color:#FEC236"/>
				</linearGradient>
				<path fill="url(#SVGID_25_)" d="M60.256,38.734c-12.251,4.177-17.861,1.694-23.148-1.868c0.011-0.041,0.034-0.13-0.022-0.224      c5.288,3.559,11.138,5.988,23.299,1.868C60.29,38.574,60.28,38.659,60.256,38.734z"/>
				<polygon fill-rule="evenodd" clip-rule="evenodd" fill="#D9A300" points="36.16,37.115 36.567,36.84 30.676,57.376       30.216,57.74 30.216,57.691     "/>
				<linearGradient id="SVGID_26_" gradientUnits="userSpaceOnUse" x1="57.833" y1="48.8916" x2="57.313" y2="48.7425">
					<stop offset="0" style="stop-color:#B37E00"/>
					<stop offset="1" style="stop-color:#FF9E00"/>
				</linearGradient>
				<path opacity="0.66" fill="url(#SVGID_26_)" d="M54.411,58.863l5.825-20.154c0.01,0,0.02-0.018,0.035-0.019      c0.304-0.031,0.45,0.13,0.45,0.13l-5.803,20.126C54.918,58.946,54.673,58.754,54.411,58.863z"/>
				<path fill-rule="evenodd" clip-rule="evenodd" fill="#A85D0F" d="M55.304,59.759c-11.965,5.111-19.636,1.966-24.923-1.591      l0.056-0.051c5.284,3.558,13.423,6.524,24.659,1.562C55.187,59.754,55.304,59.759,55.304,59.759z"/>
				<linearGradient id="SVGID_27_" gradientUnits="userSpaceOnUse" x1="55.123" y1="59.0342" x2="54.8637" y2="59.6167">
					<stop offset="0.0056" style="stop-color:#FFD100"/>
					<stop offset="1" style="stop-color:#A87109"/>
				</linearGradient>
				<path opacity="0.66" fill-rule="evenodd" clip-rule="evenodd" fill="url(#SVGID_27_)" d="M54.913,58.94l0.495,0.419      c0,0-0.066,0.237-0.333,0.352l-0.501-0.414C54.839,59.183,54.913,58.94,54.913,58.94z"/>
				<linearGradient id="SVGID_28_" gradientUnits="userSpaceOnUse" x1="30.9277" y1="59.6367" x2="54.6719" y2="59.6367">
					<stop offset="0" style="stop-color:#DE980C"/>
					<stop offset="0.4" style="stop-color:#FDDA0E"/>
					<stop offset="1" style="stop-color:#DE980C"/>
				</linearGradient>
				<path fill="url(#SVGID_28_)" d="M54.421,58.848c-0.045,0.311,0.251,0.503,0.251,0.503c-12.579,4.687-18.111,1.846-23.744-1.549      c0.089-0.071,0.147-0.126,0.202-0.344c0.011,0.006,0.037,0.013,0.048,0.021C36.625,60.834,42.957,63.592,54.421,58.848z"/>
				<path fill-rule="evenodd" clip-rule="evenodd" fill="#C67C0B" d="M30.439,58.145l0.488-0.354      c4.844,3.021,11.63,6.323,23.675,1.489l0.496,0.419C43.906,64.661,35.723,61.697,30.439,58.145z"/>
				<path fill-rule="evenodd" clip-rule="evenodd" fill="#DE980C" d="M30.48,58.156l-0.057,0.041c0,0-0.317-0.175-0.208-0.506      C30.244,58.015,30.48,58.156,30.48,58.156z"/>
				<linearGradient id="SVGID_29_" gradientUnits="userSpaceOnUse" x1="30.7617" y1="57.9697" x2="30.3788" y2="57.5444">
					<stop offset="0" style="stop-color:#DE980C"/>
					<stop offset="0.1" style="stop-color:#DE980C"/>
					<stop offset="0.7" style="stop-color:#FDDA0E"/>
					<stop offset="1" style="stop-color:#DE980C"/>
				</linearGradient>
				<path fill="url(#SVGID_29_)" d="M30.216,57.691l0.46-0.374c-0.025,0.335,0.3,0.46,0.3,0.46l-0.503,0.385      C30.472,58.162,30.192,58.028,30.216,57.691z"/>
				<linearGradient id="SVGID_30_" gradientUnits="userSpaceOnUse" x1="30.7734" y1="57.2578" x2="31.0438" y2="57.7455">
					<stop offset="0" style="stop-color:#DE980C"/>
					<stop offset="0.4" style="stop-color:#FEBF0E"/>
					<stop offset="0.8" style="stop-color:#FED40D"/>
					<stop offset="1" style="stop-color:#DE980C"/>
				</linearGradient>
				<path fill="url(#SVGID_30_)" d="M30.643,57.33c0.164-0.063,0.315,0.01,0.491,0.114c-0.059,0.214-0.099,0.289-0.188,0.355      C30.833,57.735,30.616,57.605,30.643,57.33z"/>
				<path fill-rule="evenodd" clip-rule="evenodd" fill="#DE980C" d="M36.645,36.667l-0.089,0.174l-0.408,0.293      c0.028-0.136,0.364-0.379,0.468-0.449C36.631,36.673,36.645,36.667,36.645,36.667z"/>
				<radialGradient id="SVGID_31_" cx="36.7847" cy="36.5811" r="0.293" gradientUnits="userSpaceOnUse">
					<stop offset="0" style="stop-color:#FEEB71"/>
					<stop offset="1" style="stop-color:#DE980C"/>
				</radialGradient>
				<path fill="url(#SVGID_31_)" d="M37.104,36.863c-0.243-0.137-0.46-0.068-0.548-0.022c0.015-0.046,0.065-0.161,0.065-0.161      c0.196-0.124,0.284-0.125,0.465-0.037C37.14,36.734,37.119,36.813,37.104,36.863z"/>
				<linearGradient id="SVGID_32_" gradientUnits="userSpaceOnUse" x1="34.1504" y1="47.1826" x2="33.6031" y2="47.0257">
					<stop offset="0.0056" style="stop-color:#FFEFBB"/>
					<stop offset="1" style="stop-color:#FFBF00"/>
				</linearGradient>
				<path fill="url(#SVGID_32_)" d="M31.178,57.479c-0.173-0.105-0.371-0.182-0.539-0.115l5.929-20.523      c0.09-0.043,0.301-0.118,0.541,0.026L31.178,57.479z"/>
				<linearGradient id="SVGID_33_" gradientUnits="userSpaceOnUse" x1="35.9453" y1="39.0332" x2="61.2554" y2="39.0332">
					<stop offset="0.0056" style="stop-color:#FCA858"/>
					<stop offset="0.2135" style="stop-color:#FDC30D"/>
					<stop offset="1" style="stop-color:#B51C00"/>
				</linearGradient>
				<path opacity="0.33" fill="url(#SVGID_33_)" d="M36.262,36.979c1.81,1.57,9.667,7.995,24.941,1.984l-0.487-0.389      c-0.042-0.044-0.135-0.092-0.33-0.063c-12.162,4.12-18.012,1.69-23.299-1.868c0,0.003,0,0.003,0,0.003      c-0.178-0.088-0.266-0.087-0.46,0.039C36.382,36.854,36.382,36.853,36.262,36.979z"/>
				<linearGradient id="SVGID_34_" gradientUnits="userSpaceOnUse" x1="36.1499" y1="39.3633" x2="61.3018" y2="39.3633">
					<stop offset="0.0056" style="stop-color:#FFF6D8"/>
					<stop offset="0.525" style="stop-color:#FDDA0E"/>
					<stop offset="1" style="stop-color:#F9BE0B"/>
				</linearGradient>
				<path opacity="0.33" fill="url(#SVGID_34_)" d="M61.203,38.963L61.203,38.963c-15.273,6.011-23.131-0.414-24.941-1.984      c-0.047,0.044-0.084,0.093-0.101,0.133l-0.001,0.004l-0.006,0.016c0,0-0.003,0.003-0.003,0.005l0.003-0.002l-0.004,0.01      c1.578,1.381,9.471,8.258,25.152,2.042C61.287,39.046,61.203,38.963,61.203,38.963z"/>
				<linearGradient id="SVGID_35_" gradientUnits="userSpaceOnUse" x1="54.71" y1="59.0713" x2="54.3591" y2="58.7679">
					<stop offset="0" style="stop-color:#EAB949"/>
					<stop offset="0.0722" style="stop-color:#EDC25A"/>
					<stop offset="0.2779" style="stop-color:#F3D883"/>
					<stop offset="0.4784" style="stop-color:#F8E9A4"/>
					<stop offset="0.6698" style="stop-color:#FCF5BC"/>
					<stop offset="0.8479" style="stop-color:#FEFCCA"/>
					<stop offset="1" style="stop-color:#FFFFCF"/>
				</linearGradient>
				<path fill="url(#SVGID_35_)" d="M54.604,59.283c0,0-0.225-0.139-0.183-0.448c0.309-0.082,0.498,0.111,0.498,0.111      S54.871,59.167,54.604,59.283z"/>
			</g>
			<g>
				<radialGradient id="SVGID_36_" cx="34.6309" cy="30.8984" r="28.3626" gradientUnits="userSpaceOnUse">
					<stop offset="0.0036" style="stop-color:#EFD914"/>
					<stop offset="0.1049" style="stop-color:#EFD514"/>
					<stop offset="0.2152" style="stop-color:#EDC713"/>
					<stop offset="0.3296" style="stop-color:#EBB212"/>
					<stop offset="0.4469" style="stop-color:#E89310"/>
					<stop offset="0.5652" style="stop-color:#E36D0E"/>
					<stop offset="0.65" style="stop-color:#E04C0C"/>
					<stop offset="0.7829" style="stop-color:#CE2907"/>
					<stop offset="0.9216" style="stop-color:#BF0B02"/>
					<stop offset="1" style="stop-color:#B90000"/>
				</radialGradient>
				<path fill="url(#SVGID_36_)" d="M34.969,30.945c-3.183-2.145-6.609-4.149-11.476-4.185c-3.209-0.025-7.032,0.888-11.885,2.894      l6.012-20.837c12.207-5.046,18.072-2.188,23.361,1.39L34.969,30.945z"/>
				<path fill-rule="evenodd" clip-rule="evenodd" fill="#BD1A00" d="M34.962,30.939l6.016-20.732      c0.066,0.044,0.093,0.078,0.126,0.118l-6.012,20.762C35.059,31,34.962,30.939,34.962,30.939z"/>
				<path fill-rule="evenodd" clip-rule="evenodd" fill="#BD1A00" d="M12.187,30.258c1.925-0.789,3.705-1.375,5.357-1.777      c0.403-0.099,0.76-0.184,1.185-0.265c0.389-0.079,0.773-0.155,1.147-0.211c0.588-0.087,1.16-0.163,1.721-0.207      c0.474-0.038,0.937-0.064,1.39-0.067c0.438-0.004,0.869,0,1.29,0.022c0.372,0.022,0.736,0.05,1.095,0.092      c0.304,0.034,0.6,0.073,0.895,0.122c0.62,0.107,1.219,0.24,1.797,0.402c2.339,0.663,4.417,1.789,6.327,3.061      c-0.016,0.009-0.061-0.012-0.079-0.021c-0.019-0.009-0.027-0.009-0.046-0.02c-2.581-1.638-5.352-3.063-8.776-3.482      c-3.5-0.428-7.586,0.174-13.086,2.354c0,0-0.125,0.057-0.175,0.063C12.187,30.334,12.195,30.301,12.187,30.258z"/>
				<path fill="#BD1A00" d="M34.756,31.245c0,0,0.079,0.054,0.171,0.035l-0.377,0.17c-0.104,0.027-0.225-0.035-0.225-0.035      L34.756,31.245z"/>
				<path fill="#B81A00" d="M12.189,30.261c0,0,0.024,0.043,0.04,0.066c-0.033,0.005-0.042,0.015-0.132-0.026      c-0.014-0.005-0.031-0.02-0.045-0.031l-0.392-0.307l-0.037-0.027c0.053-0.004,0.092,0.021,0.118,0.017L12.189,30.261z"/>
				<path fill="#E82E00" d="M34.968,30.943c0.04,0.026,0.092,0.042,0.127,0.129c-0.025,0.113-0.118,0.17-0.17,0.208      c-0.094,0.026-0.185-0.044-0.185-0.044C34.801,31.192,34.907,31.118,34.968,30.943z"/>
				<path fill-rule="evenodd" clip-rule="evenodd" fill="#F83500" d="M41.014,10.066l0.006,0.002      c0.078,0.055,0.106,0.155,0.084,0.257l-0.004,0.01c-0.033-0.037-0.056-0.076-0.122-0.128L41.014,10.066z"/>
				<path fill-rule="evenodd" clip-rule="evenodd" fill="#E42D00" d="M11.63,29.945c-0.058-0.042-0.114-0.22-0.081-0.325      l0.077-0.022c-0.031,0.149,0.062,0.325,0.145,0.372C11.771,29.97,11.714,30.005,11.63,29.945z"/>
				<g>
					<defs>
						<path id="SVGID_37_" d="M17.623,8.821l-0.058-0.014c0.024-0.093,0.087-0.12,0.109-0.128l0.007-0.002        C17.682,8.678,17.654,8.721,17.623,8.821z"/>
					</defs>
					<linearGradient id="SVGID_38_" gradientUnits="userSpaceOnUse" x1="17.5654" y1="8.75" x2="17.6821" y2="8.75">
						<stop offset="0" style="stop-color:#FD7E36"/>
						<stop offset="1" style="stop-color:#BD704F"/>
					</linearGradient>
					<use xlink:href="#SVGID_37_" overflow="visible" fill-rule="evenodd" clip-rule="evenodd" fill="url(#SVGID_38_)"/>
					<clipPath id="SVGID_39_">
						<use xlink:href="#SVGID_37_" overflow="visible"/>
					</clipPath>
				</g>
				<g>
					<path fill-rule="evenodd" clip-rule="evenodd" fill="#E82E00" d="M34.767,31.249c-5.69-3.948-12.659-6.425-23.008-1.284       l0.423,0.3c11.312-4.622,17.206-2.123,22.169,1.149L34.767,31.249z"/>
					<path fill="#E82E00" d="M34.756,31.245c-3.258-2.127-6.303-3.89-11.131-4.027c-3.523,0.071-6.231,0.521-11.855,2.752       c-0.083-0.044-0.188-0.162-0.161-0.315c4.871-2.074,8.738-2.973,11.946-2.939c4.864,0.046,8.231,2.082,11.415,4.223       C34.915,31.13,34.811,31.199,34.756,31.245z"/>
				</g>
				<path fill-rule="evenodd" clip-rule="evenodd" fill="#E42D00" d="M17.565,8.806l0.055,0.016l-5.999,20.822      c-0.013-0.009-0.073-0.023-0.073-0.023L17.565,8.806z"/>
				<linearGradient id="SVGID_40_" gradientUnits="userSpaceOnUse" x1="17.623" y1="8.082" x2="41.0137" y2="8.082">
					<stop offset="0" style="stop-color:#FD2A20"/>
					<stop offset="0.236" style="stop-color:#FF5909"/>
					<stop offset="0.245" style="stop-color:#FC570A"/>
					<stop offset="0.3252" style="stop-color:#E84D0E"/>
					<stop offset="0.4153" style="stop-color:#D94511"/>
					<stop offset="0.5236" style="stop-color:#D14012"/>
					<stop offset="0.6966" style="stop-color:#CE3F13"/>
					<stop offset="0.7958" style="stop-color:#D14213"/>
					<stop offset="0.8688" style="stop-color:#D94B14"/>
					<stop offset="0.9334" style="stop-color:#E65B16"/>
					<stop offset="0.9927" style="stop-color:#F97218"/>
					<stop offset="1" style="stop-color:#FC7518"/>
				</linearGradient>
				<path opacity="0.66" fill-rule="evenodd" clip-rule="evenodd" fill="url(#SVGID_40_)" d="M40.98,10.209      c-5.291-3.58-11.208-6.35-23.357-1.388c0.025-0.106,0.052-0.142,0.052-0.142c12.209-5.047,18.053-2.192,23.339,1.387      L40.98,10.209z"/>
				<path opacity="0.33" fill-rule="evenodd" clip-rule="evenodd" fill="#FF8410" d="M40.281,10.895      c-4.311-2.797-10.007-6.303-22.157-1.343c0.026-0.104,0.059-0.158,0.059-0.158c12.206-5.047,17.959-1.202,22.141,1.349      L40.281,10.895z"/>
				<g opacity="0.6">
					<linearGradient id="SVGID_41_" gradientUnits="userSpaceOnUse" x1="11.6162" y1="19.6445" x2="18.1733" y2="19.6445">
						<stop offset="0" style="stop-color:#FD7E36"/>
						<stop offset="1" style="stop-color:#BD704F"/>
					</linearGradient>
					<path opacity="0.6" fill="url(#SVGID_41_)" d="M17.821,8.959c-0.033,0.014-0.151-0.002-0.151-0.002l-6.054,20.961l0.435,0.352       c0.015,0.012,0.032,0.026,0.045,0.031c0.076,0.033,0.093,0.033,0.117,0.027l5.942-20.867l0.018-0.062L17.821,8.959z"/>
				</g>
				<linearGradient id="SVGID_42_" gradientUnits="userSpaceOnUse" x1="42.2583" y1="11.1934" x2="20.2533" y2="6.2884">
					<stop offset="0" style="stop-color:#FF550D"/>
					<stop offset="1" style="stop-color:#8C1500"/>
				</linearGradient>
				<path opacity="0.5" fill="url(#SVGID_42_)" d="M40.311,10.761c0.002,0.003,0.004,0.004,0.007,0.007      c0-0.007,0.001-0.01,0.001-0.014L40.311,10.761z"/>
				<linearGradient id="SVGID_43_" gradientUnits="userSpaceOnUse" x1="29.3057" y1="10.9365" x2="29.0399" y2="3.6737">
					<stop offset="0" style="stop-color:#FF550D"/>
					<stop offset="1" style="stop-color:#8C1500"/>
				</linearGradient>
				<path opacity="0.5" fill="url(#SVGID_43_)" d="M40.459,10.282c-2.006-1.344-5.347-3.526-10.233-3.868      C25.043,6.05,18.478,8.688,17.821,8.959l0.353,0.44l-0.018,0.062c0.018-0.004,0.036-0.016,0.053-0.021      c12.102-5.204,19.555-0.506,22.102,1.321l0.009-0.007l0.38-0.311C40.623,10.391,40.542,10.337,40.459,10.282z"/>
				<path opacity="0.5" fill="#FFF4C5" d="M17.821,8.959c0.657-0.271,7.223-2.909,12.405-2.545      c4.886,0.342,8.227,2.524,10.233,3.868c0.083,0.055,0.164,0.108,0.24,0.161l0.375-0.302c-0.016-0.026-0.027-0.055-0.054-0.073      c-5.17-3.502-10.882-6.307-22.55-1.709c-0.261,0.105-0.521,0.206-0.788,0.318l0,0L17.821,8.959z"/>
				<linearGradient id="SVGID_44_" gradientUnits="userSpaceOnUse" x1="34.2852" y1="20.7656" x2="41.1099" y2="20.7656">
					<stop offset="0" style="stop-color:#FD7E36"/>
					<stop offset="1" style="stop-color:#FC895B"/>
				</linearGradient>
				<path opacity="0.6" fill="url(#SVGID_44_)" d="M41.014,10.074l-0.034,0.135l-0.281,0.234l-0.38,0.311      c0,0.004-0.001,0.007-0.001,0.014c-1.261,4.322-5.199,17.813-6.033,20.628c0.009,0.005,0.016,0.007,0.027,0.013      c0.004,0.002,0.01,0.006,0.013,0.007l0,0c0,0,0.122,0.063,0.225,0.035l0.377-0.17c-0.002,0.002-0.004,0-0.011,0.002      c0.004-0.002,0.007,0,0.009-0.002c0.048-0.038,0.14-0.095,0.167-0.193l0,0l0.001-0.01c0-0.001,0.002-0.001,0.002-0.005l0,0      l5.765-19.91l0,0l0.143-0.489l0.003-0.021l0.097-0.326C41.12,10.257,41.109,10.116,41.014,10.074z"/>
				<linearGradient id="SVGID_45_" gradientUnits="userSpaceOnUse" x1="11.6177" y1="28.9688" x2="34.9839" y2="28.9688">
					<stop offset="0" style="stop-color:#FD9B20"/>
					<stop offset="0.25" style="stop-color:#FD9B20"/>
					<stop offset="0.3365" style="stop-color:#FDB830"/>
					<stop offset="0.4292" style="stop-color:#FED23E"/>
					<stop offset="0.4851" style="stop-color:#FEDB43"/>
					<stop offset="0.75" style="stop-color:#FF8410"/>
					<stop offset="1" style="stop-color:#FF550D"/>
				</linearGradient>
				<path opacity="0.5" fill="url(#SVGID_45_)" d="M34.768,31.234c-3.256-2.127-6.301-3.89-11.128-4.029      c-3.525,0.071-6.232,0.521-11.855,2.754c-0.085-0.044-0.189-0.163-0.162-0.315c4.872-2.075,8.738-2.974,11.948-2.94      c4.862,0.049,8.229,2.083,11.414,4.224C34.928,31.118,34.824,31.19,34.768,31.234z"/>
				<path fill-rule="evenodd" clip-rule="evenodd" fill="none" d="M17.623,8.709c-0.023,0.021-0.045,0.05-0.058,0.097l-0.309,1.061      L11.549,29.62c-0.033,0.105,0.022,0.283,0.081,0.325c0.007,0.005,0.01,0.005,0.017,0.007l0.012,0.011l-0.057,0.005L17.67,8.957      c0,0,0.118,0.016,0.151,0.002L17.623,8.709z"/>
				<path fill-rule="evenodd" clip-rule="evenodd" fill="#F83500" d="M41.014,10.066l0.006,0.005      c0.078,0.052,0.106,0.153,0.084,0.254l-0.004,0.01c-0.033-0.037-0.056-0.075-0.122-0.128L41.014,10.066z"/>
				<g>
					<defs>
						<path id="SVGID_46_" d="M17.623,8.821l-0.057-0.014c0.023-0.089,0.086-0.118,0.108-0.128l0.008-0.002        C17.683,8.678,17.654,8.721,17.623,8.821z"/>
					</defs>
					<linearGradient id="SVGID_47_" gradientUnits="userSpaceOnUse" x1="17.5664" y1="8.75" x2="17.6831" y2="8.75">
						<stop offset="0" style="stop-color:#FD7E36"/>
						<stop offset="1" style="stop-color:#BD704F"/>
					</linearGradient>
					<use xlink:href="#SVGID_46_" overflow="visible" fill-rule="evenodd" clip-rule="evenodd" fill="url(#SVGID_47_)"/>
					<clipPath id="SVGID_48_">
						<use xlink:href="#SVGID_46_" overflow="visible"/>
					</clipPath>
				</g>
				<linearGradient id="SVGID_49_" gradientUnits="userSpaceOnUse" x1="17.623" y1="8.082" x2="41.0137" y2="8.082">
					<stop offset="0" style="stop-color:#FD2A20"/>
					<stop offset="0.236" style="stop-color:#FF5909"/>
					<stop offset="0.245" style="stop-color:#FC570A"/>
					<stop offset="0.3252" style="stop-color:#E84D0E"/>
					<stop offset="0.4153" style="stop-color:#D94511"/>
					<stop offset="0.5236" style="stop-color:#D14012"/>
					<stop offset="0.6966" style="stop-color:#CE3F13"/>
					<stop offset="0.7958" style="stop-color:#D14213"/>
					<stop offset="0.8688" style="stop-color:#D94B14"/>
					<stop offset="0.9334" style="stop-color:#E65B16"/>
					<stop offset="0.9927" style="stop-color:#F97218"/>
					<stop offset="1" style="stop-color:#FC7518"/>
				</linearGradient>
				<path opacity="0.66" fill-rule="evenodd" clip-rule="evenodd" fill="url(#SVGID_49_)" d="M40.98,10.209      c-5.288-3.58-11.208-6.349-23.357-1.388c0.025-0.103,0.052-0.142,0.052-0.142c12.209-5.047,18.053-2.192,23.339,1.387      L40.98,10.209z"/>
			</g>
			<g>
				<radialGradient id="SVGID_50_" cx="35.4126" cy="34.0459" r="32.4535" gradientUnits="userSpaceOnUse">
					<stop offset="0.005" style="stop-color:#D1E787"/>
					<stop offset="0.1221" style="stop-color:#CEE583"/>
					<stop offset="0.2462" style="stop-color:#C4DE76"/>
					<stop offset="0.3734" style="stop-color:#B3D361"/>
					<stop offset="0.5027" style="stop-color:#9CC443"/>
					<stop offset="0.6325" style="stop-color:#7FB11E"/>
					<stop offset="0.6495" style="stop-color:#7BAE18"/>
					<stop offset="0.7789" style="stop-color:#578D19"/>
					<stop offset="0.922" style="stop-color:#366F1A"/>
					<stop offset="1" style="stop-color:#29631A"/>
				</radialGradient>
				<path fill="url(#SVGID_50_)" d="M67.479,13.742c-12.191,5.038-18.048,2.205-23.325-1.35l-6.013,20.854      c5.273,3.575,11.644,6.51,23.332,1.278L67.479,13.742z"/>
				<linearGradient id="SVGID_51_" gradientUnits="userSpaceOnUse" x1="44.1509" y1="14.335" x2="67.5894" y2="14.335">
					<stop offset="0" style="stop-color:#D3ED89"/>
					<stop offset="1" style="stop-color:#5F821B"/>
				</linearGradient>
				<path fill="url(#SVGID_51_)" d="M67.452,13.758c-12.19,5.038-18.024,2.203-23.301-1.348c0.014-0.048,0.033-0.139,0-0.225      c5.277,3.553,11.257,6.416,23.438,1.376C67.49,13.618,67.482,13.688,67.452,13.758z"/>
				<polygon fill-rule="evenodd" clip-rule="evenodd" fill="#8CAC42" points="43.219,12.658 43.656,12.347 37.703,33.018       37.244,33.384 37.244,33.336     "/>
				<linearGradient id="SVGID_52_" gradientUnits="userSpaceOnUse" x1="41.1899" y1="22.8203" x2="40.6323" y2="22.6604">
					<stop offset="0.2822" style="stop-color:#D3ED89"/>
					<stop offset="0.4045" style="stop-color:#D3ED89"/>
					<stop offset="1" style="stop-color:#5F821B"/>
				</linearGradient>
				<path fill="url(#SVGID_52_)" d="M38.152,33.253c-0.183-0.106-0.32-0.316-0.485-0.25l5.968-20.646      c0.091-0.039,0.32-0.117,0.541,0.053L38.152,33.253z"/>
				<path fill-rule="evenodd" clip-rule="evenodd" fill="#5F821B" d="M43.709,12.217l-0.06,0.146l-0.435,0.314      c0.039-0.142,0.373-0.376,0.47-0.449C43.706,12.218,43.709,12.217,43.709,12.217z"/>
				<linearGradient id="SVGID_53_" gradientUnits="userSpaceOnUse" x1="44.1763" y1="12.2725" x2="43.6414" y2="12.2351">
					<stop offset="0" style="stop-color:#79AA21"/>
					<stop offset="0.2" style="stop-color:#D3ED89"/>
					<stop offset="0.525" style="stop-color:#D3ED89"/>
					<stop offset="1" style="stop-color:#79AA21"/>
				</linearGradient>
				<path fill="url(#SVGID_53_)" d="M44.154,12.393c-0.226-0.138-0.433-0.068-0.522-0.03c0.013-0.044,0.053-0.135,0.053-0.135      c0.197-0.123,0.279-0.128,0.466-0.042C44.175,12.255,44.184,12.324,44.154,12.393z"/>
				<linearGradient id="SVGID_54_" gradientUnits="userSpaceOnUse" x1="61.8726" y1="24.4395" x2="68.3931" y2="24.4395">
					<stop offset="0.0056" style="stop-color:#79AA21"/>
					<stop offset="0.1685" style="stop-color:#1D4A20"/>
					<stop offset="0.382" style="stop-color:#26551B"/>
					<stop offset="1" style="stop-color:#79AA21"/>
				</linearGradient>
				<polygon opacity="0.81" fill-rule="evenodd" clip-rule="evenodd" fill="url(#SVGID_54_)" points="61.873,34.617 67.9,13.859       68.393,14.249 62.332,35.019     "/>
				<path fill-rule="evenodd" clip-rule="evenodd" fill="#476E32" d="M62.45,35.17c0.015-0.119-0.109-0.215-0.109-0.215      l6.043-20.726c0,0,0.097,0.086,0.122,0.146L62.45,35.17z"/>
				<path fill-rule="evenodd" clip-rule="evenodd" fill="#1D3419" d="M62.247,35.363c-3.256,1.48-6.335,2.245-9.197,2.492      c-4.944,0.557-8.942-0.516-12.205-2.119c-1.272-0.582-2.418-1.243-3.438-1.931l0.056-0.042c1.033,0.691,2.155,1.37,3.382,1.973      c3.319,1.523,7.458,2.53,12.205,2.119c2.702-0.309,5.689-1.104,8.989-2.567C62.131,35.358,62.247,35.363,62.247,35.363z"/>
				<linearGradient id="SVGID_55_" gradientUnits="userSpaceOnUse" x1="61.9341" y1="34.7461" x2="61.407" y2="34.7092">
					<stop offset="0" style="stop-color:#79AA21"/>
					<stop offset="1" style="stop-color:#D3ED89"/>
				</linearGradient>
				<path fill="url(#SVGID_55_)" d="M61.615,34.988c0,0-0.23-0.208-0.191-0.511c0.32-0.084,0.521,0.113,0.521,0.113      S61.882,34.874,61.615,34.988z"/>
				<linearGradient id="SVGID_56_" gradientUnits="userSpaceOnUse" x1="62.1455" y1="34.7803" x2="61.8114" y2="35.1513">
					<stop offset="0" style="stop-color:#5F821B"/>
					<stop offset="1" style="stop-color:#26551B"/>
				</linearGradient>
				<path fill-rule="evenodd" clip-rule="evenodd" fill="url(#SVGID_56_)" d="M61.917,34.579l0.432,0.385      c0,0-0.064,0.24-0.329,0.354l-0.45-0.384C61.839,34.82,61.917,34.579,61.917,34.579z"/>
				<linearGradient id="SVGID_57_" gradientUnits="userSpaceOnUse" x1="37.915" y1="35.4336" x2="61.6548" y2="35.4336">
					<stop offset="0" style="stop-color:#79AA21"/>
					<stop offset="0.4" style="stop-color:#D3ED89"/>
					<stop offset="1" style="stop-color:#79AA21"/>
				</linearGradient>
				<path fill="url(#SVGID_57_)" d="M61.471,34.455c-0.042,0.306,0.184,0.528,0.184,0.528c-12.184,5.041-18.461,2.078-23.74-1.5      c0.092-0.063,0.106-0.063,0.167-0.283C43.357,36.777,51.332,39.281,61.471,34.455z"/>
				<path fill-rule="evenodd" clip-rule="evenodd" fill="#26551B" d="M37.464,33.783l0.454-0.302      c5.278,3.401,11.513,6.336,23.688,1.442l0.438,0.382C50.355,40.465,42.88,37.596,37.464,33.783z"/>
				<path fill-rule="evenodd" clip-rule="evenodd" fill="#5F821B" d="M62.45,35.17c-0.057,0.11-0.165,0.177-0.203,0.193      c-0.008,0.005-0.012,0.005-0.012,0.005s-0.081,0.015-0.196-0.063c0.243-0.125,0.311-0.394,0.311-0.394      S62.487,35.035,62.45,35.17z"/>
				<path fill-rule="evenodd" clip-rule="evenodd" fill="#26551B" d="M37.482,33.779l-0.053,0.044c0,0-0.295-0.162-0.185-0.487      C37.272,33.659,37.482,33.779,37.482,33.779z"/>
				<linearGradient id="SVGID_58_" gradientUnits="userSpaceOnUse" x1="37.77" y1="33.6162" x2="37.3956" y2="33.2004">
					<stop offset="0" style="stop-color:#1D3A19"/>
					<stop offset="0.1" style="stop-color:#26551B"/>
					<stop offset="0.65" style="stop-color:#79AA21"/>
					<stop offset="1" style="stop-color:#D3ED89"/>
				</linearGradient>
				<path fill="url(#SVGID_58_)" d="M37.244,33.336l0.44-0.347c-0.027,0.335,0.259,0.471,0.259,0.471l-0.444,0.346      C37.499,33.806,37.222,33.669,37.244,33.336z"/>
				<linearGradient id="SVGID_59_" gradientUnits="userSpaceOnUse" x1="37.7583" y1="32.9434" x2="38.0315" y2="33.4362">
					<stop offset="0" style="stop-color:#5F821B"/>
					<stop offset="0.4045" style="stop-color:#79AA21"/>
					<stop offset="0.8" style="stop-color:#5F821B"/>
					<stop offset="1" style="stop-color:#5F821B"/>
				</linearGradient>
				<path fill="url(#SVGID_59_)" d="M37.673,32.989c0.15-0.049,0.284,0.111,0.468,0.257c-0.062,0.213-0.111,0.175-0.206,0.241      C37.829,33.425,37.644,33.264,37.673,32.989z"/>
				<linearGradient id="SVGID_60_" gradientUnits="userSpaceOnUse" x1="68.1255" y1="14.0605" x2="68.203" y2="13.7969">
					<stop offset="0" style="stop-color:#5B7F30"/>
					<stop offset="1" style="stop-color:#D3ED89"/>
				</linearGradient>
				<path opacity="0.72" fill-rule="evenodd" clip-rule="evenodd" fill="url(#SVGID_60_)" d="M68.434,14.035      c0.004,0.076-0.051,0.204-0.051,0.204l-0.468-0.376c0,0,0.068-0.155,0.034-0.271C68.105,13.659,68.407,13.989,68.434,14.035z"/>
				<linearGradient id="SVGID_61_" gradientUnits="userSpaceOnUse" x1="67.6436" y1="17.3887" x2="43.779" y2="10.5456">
					<stop offset="0" style="stop-color:#1D3419"/>
					<stop offset="0.2277" style="stop-color:#26551B"/>
					<stop offset="1" style="stop-color:#79AA21"/>
				</linearGradient>
				<path opacity="0.33" fill="url(#SVGID_61_)" d="M68.422,14.016c-0.091-0.124-0.23-0.233-0.34-0.333      c-0.207-0.188-0.461-0.146-0.522-0.111l-0.004,0.006c-12.157,5.021-18.13,2.158-23.404-1.392      c0.012,0.026,0.014,0.053,0.015,0.078c-0.001-0.025-0.003-0.052-0.015-0.078c-0.187-0.086-0.269-0.081-0.466,0.042      c-0.075,0.052-0.271,0.198-0.386,0.321C45.33,14.256,53.952,21.013,68.422,14.016z M44.154,12.393L44.154,12.393l-0.003,0.004      c0-0.004-0.002-0.004-0.003-0.005C44.149,12.393,44.151,12.393,44.154,12.393c0.012-0.028,0.012-0.055,0.015-0.082      C44.166,12.344,44.163,12.372,44.154,12.393z"/>
				<linearGradient id="SVGID_62_" gradientUnits="userSpaceOnUse" x1="64.9575" y1="24.2441" x2="64.4037" y2="24.0853">
					<stop offset="0" style="stop-color:#5F821B"/>
					<stop offset="1" style="stop-color:#75C145"/>
				</linearGradient>
				<path opacity="0.72" fill="url(#SVGID_62_)" d="M61.416,34.504l6.027-20.751c0.329-0.06,0.487,0.127,0.487,0.127l-6.012,20.699      C61.917,34.579,61.671,34.394,61.416,34.504z"/>
				<linearGradient id="SVGID_63_" gradientUnits="userSpaceOnUse" x1="67.4521" y1="13.959" x2="68.5234" y2="13.959">
					<stop offset="0" style="stop-color:#D3ED89"/>
					<stop offset="1" style="stop-color:#5F821B"/>
				</linearGradient>
				<path opacity="0.6" fill="url(#SVGID_63_)" d="M67.452,13.758c0.017-0.078,0.027-0.113,0.107-0.187      c0.061-0.035,0.316-0.077,0.522,0.111c0.205,0.186,0.521,0.401,0.424,0.693c-0.024-0.061-0.117-0.137-0.117-0.137l-0.459-0.362      C67.93,13.877,67.78,13.699,67.452,13.758z"/>
				<linearGradient id="SVGID_64_" gradientUnits="userSpaceOnUse" x1="67.541" y1="17.6396" x2="43.7451" y2="10.8163">
					<stop offset="0" style="stop-color:#93BF81"/>
					<stop offset="0.2277" style="stop-color:#26551B"/>
					<stop offset="1" style="stop-color:#BDE256"/>
				</linearGradient>
				<path opacity="0.3" fill="url(#SVGID_64_)" d="M43.299,12.549c-0.03,0.039-0.061,0.072-0.075,0.104l-0.005,0.005l-0.022,0.072      c1.835,1.553,10.54,8.702,25.321,1.505c-0.01-0.079-0.044-0.154-0.096-0.22C53.952,21.013,45.33,14.256,43.299,12.549z"/>
				<linearGradient id="SVGID_65_" gradientUnits="userSpaceOnUse" x1="68.1265" y1="14.0605" x2="68.2041" y2="13.7966">
					<stop offset="0" style="stop-color:#5B7F30"/>
					<stop offset="1" style="stop-color:#D3ED89"/>
				</linearGradient>
				<path opacity="0.72" fill-rule="evenodd" clip-rule="evenodd" fill="url(#SVGID_65_)" d="M68.434,14.036      c0.004,0.076-0.051,0.203-0.051,0.203l-0.468-0.376c0,0,0.069-0.154,0.035-0.271C68.105,13.66,68.407,13.991,68.434,14.036z"/>
				<linearGradient id="SVGID_66_" gradientUnits="userSpaceOnUse" x1="67.4521" y1="13.959" x2="68.5254" y2="13.959">
					<stop offset="0" style="stop-color:#D3ED89"/>
					<stop offset="1" style="stop-color:#5F821B"/>
				</linearGradient>
				<path opacity="0.6" fill="url(#SVGID_66_)" d="M67.452,13.758c0.017-0.078,0.027-0.113,0.108-0.187      c0.06-0.035,0.316-0.077,0.521,0.112c0.205,0.186,0.522,0.4,0.426,0.694c-0.026-0.063-0.118-0.138-0.118-0.138l-0.459-0.363      C67.93,13.877,67.78,13.699,67.452,13.758z"/>
			</g>
		</g>
	</g>
</g>
<g id="Layer_2">
</g>
</svg>